<?xml version="1.0" encoding="UTF-8"?>
<svg width="76px" height="20px" viewBox="0 0 76 20" version="1.1" xmlns="http://www.w3.org/2000/svg" xmlns:xlink="http://www.w3.org/1999/xlink">
    <!-- Generator: Sketch 61 (89581) - https://sketch.com -->
    <title>广告</title>
    <desc>Created with Sketch.</desc>
    <defs>
        <path d="M46.1210938,16.7431641 C47.6158854,15.0478516 48.358724,12.7692057 48.3496094,9.90722656 L48.3496094,9.90722656 L48.3496094,6.51660156 L58.5898438,6.51660156 L58.5898438,5.40917969 L52.984375,5.40917969 L53.75,4.95800781 C53.4036458,4.41113281 53.0071615,3.85058594 52.5605469,3.27636719 L52.5605469,3.27636719 L51.5625,3.85058594 C51.9863281,4.45214844 52.3258464,4.97167969 52.5810547,5.40917969 L52.5810547,5.40917969 L47.1328125,5.40917969 L47.1328125,9.77050781 C47.1328125,12.3955078 46.4674479,14.4326172 45.1367188,15.8818359 C45.5833333,16.2281901 45.9114583,16.5152995 46.1210938,16.7431641 Z M72.7402344,9.75683594 L72.7402344,8.74511719 L66.984375,8.74511719 L66.984375,6.48925781 L71.7148438,6.48925781 L71.7148438,5.47753906 L66.984375,5.47753906 L66.984375,3.33105469 L65.8632812,3.33105469 L65.8632812,5.47753906 L62.6640625,5.47753906 C62.8873698,4.97623698 63.1015625,4.45214844 63.3066406,3.90527344 L63.3066406,3.90527344 L62.171875,3.57714844 C61.6888021,5.10839844 60.9459635,6.53027344 59.9433594,7.84277344 C60.3170573,8.06152344 60.6542969,8.27571615 60.9550781,8.48535156 C61.3880208,7.87923177 61.7936198,7.21386719 62.171875,6.48925781 L62.171875,6.48925781 L65.8632812,6.48925781 L65.8632812,8.74511719 L59.3828125,8.74511719 L59.3828125,9.75683594 L72.7402344,9.75683594 Z M62.3085938,16.7021484 L62.3085938,15.9912109 L69.8417969,15.9912109 L69.8417969,16.7021484 L70.9355469,16.7021484 L70.9355469,11.2197266 L61.2148438,11.2197266 L61.2148438,16.7021484 L62.3085938,16.7021484 Z M69.8417969,15.0205078 L62.3085938,15.0205078 L62.3085938,12.2041016 L69.8417969,12.2041016 L69.8417969,15.0205078 Z" id="path-1"></path>
        <filter x="-5.4%" y="-11.1%" width="110.9%" height="122.3%" filterUnits="objectBoundingBox" id="filter-2">
            <feOffset dx="0" dy="0" in="SourceAlpha" result="shadowOffsetOuter1"></feOffset>
            <feGaussianBlur stdDeviation="0.5" in="shadowOffsetOuter1" result="shadowBlurOuter1"></feGaussianBlur>
            <feColorMatrix values="0 0 0 0 0   0 0 0 0 0   0 0 0 0 0  0 0 0 0.5 0" type="matrix" in="shadowBlurOuter1"></feColorMatrix>
        </filter>
    </defs>
    <g id="页面-1" stroke="none" stroke-width="1" fill="none" fill-rule="evenodd">
        <g id="广告">
            <path d="M42.5,0.5 L42.5,18 C42.5,18.8278576 43.1721424,19.5 44,19.5 L75.5,19.5 L75.5,2 C75.5,1.17214237 74.8278576,0.5 74,0.5 L42.5,0.5 Z" id="Fill-1" stroke-opacity="0.25" stroke="#FFFFFF" fill-opacity="0.3" fill="#FFFFFF"></path>
            <g fill-rule="nonzero">
                <use fill="black" fill-opacity="1" filter="url(#filter-2)" xlink:href="#path-1"></use>
                <use fill="#FFFFFF" xlink:href="#path-1"></use>
            </g>
        </g>
    </g>
</svg>